<svg width="40" height="40" viewBox="0 0 40 40" fill="none" xmlns="http://www.w3.org/2000/svg">
<g clip-path="url(#clip0_220_2342)">
<path d="M32 0H8C3.58172 0 0 3.58172 0 8V32C0 36.4183 3.58172 40 8 40H32C36.4183 40 40 36.4183 40 32V8C40 3.58172 36.4183 0 32 0Z" fill="#4717F6"/>
<g filter="url(#filter0_d_220_2342)">
<path d="M20.5533 35.4661C11.08 35.4661 5.75998 31.7328 5.75998 24.4528V24.1728H12.76V25.0128C12.76 27.9061 14.2066 29.0728 20.5533 29.0728C26.1533 29.0728 27.46 28.2328 27.46 26.1328C27.46 24.2194 26.3866 23.5194 23.1666 22.9594L14.3933 21.6994C8.79331 20.8128 5.47998 18.0128 5.47998 12.9261C5.47998 8.21278 9.30665 3.26611 19.8066 3.26611C29.42 3.26611 33.9 7.69945 33.9 14.2794V14.5594H26.8533V13.9061C26.8533 10.9194 25.3133 9.65945 19.1066 9.65945C14.0666 9.65945 12.5266 10.6394 12.5266 12.6461C12.5266 14.4661 13.5533 15.1194 16.1666 15.5861L24.94 16.9861C31.94 18.1061 34.46 21.5128 34.46 25.8061C34.46 30.8928 30.4933 35.4661 20.5533 35.4661Z" fill="url(#paint0_linear_220_2342)"/>
</g>
</g>
<defs>
<filter id="filter0_d_220_2342" x="4.41331" y="3.26611" width="31.1133" height="34.3335" filterUnits="userSpaceOnUse" color-interpolation-filters="sRGB">
<feFlood flood-opacity="0" result="BackgroundImageFix"/>
<feColorMatrix in="SourceAlpha" type="matrix" values="0 0 0 0 0 0 0 0 0 0 0 0 0 0 0 0 0 0 127 0" result="hardAlpha"/>
<feOffset dy="1.06667"/>
<feGaussianBlur stdDeviation="0.533333"/>
<feComposite in2="hardAlpha" operator="out"/>
<feColorMatrix type="matrix" values="0 0 0 0 0.247059 0 0 0 0 0.317647 0 0 0 0 0.709804 0 0 0 1 0"/>
<feBlend mode="normal" in2="BackgroundImageFix" result="effect1_dropShadow_220_2342"/>
<feBlend mode="normal" in="SourceGraphic" in2="effect1_dropShadow_220_2342" result="shape"/>
</filter>
<linearGradient id="paint0_linear_220_2342" x1="20" y1="-8.66722" x2="20" y2="48.6661" gradientUnits="userSpaceOnUse">
<stop stop-color="#50CDFE"/>
<stop offset="0.504808" stop-color="#4FCCFE"/>
<stop offset="1" stop-color="#5DE6DA"/>
</linearGradient>
<clipPath id="clip0_220_2342">
<rect width="40" height="40" fill="white"/>
</clipPath>
</defs>
</svg>
